<svg width="24" height="24" viewBox="0 0 24 24" fill="none" xmlns="http://www.w3.org/2000/svg">
<path d="M9.96 14.04V12.93C9.96 12.5 9.64 12.29 9.25 12.46L4.24 14.62C3.45 14.96 2.81 14.54 2.81 13.69V12.37C2.81 11.69 3.32 10.9 3.95 10.64L9.65 8.19C9.81 8.11 9.95 7.9 9.95 7.72V4.66C9.95 3.7 10.66 2.55 11.51 2.11C11.81 1.96 12.17 1.96 12.47 2.11C13.33 2.55 14.04 3.69 14.04 4.65V7.71C14.04 7.89 14.18 8.1 14.34 8.18L15.38 8.62L9.96 14.04Z" fill="#FF5C64"/>
<path opacity="0.4" d="M21.19 12.37V13.69C21.19 14.54 20.55 14.96 19.76 14.62L14.75 12.46C14.35 12.3 14.04 12.5 14.04 12.93V15.84C14.04 16.07 14.17 16.4 14.34 16.56L16.66 18.89C16.9 19.13 17.01 19.61 16.9 19.94L16.45 21.3C16.25 21.89 15.58 22.16 15.03 21.89L12.65 19.89C12.29 19.58 11.7 19.58 11.34 19.89L8.95998 21.89C8.40998 22.17 7.73998 21.89 7.55998 21.3L7.10998 19.94C6.99998 19.6 7.10998 19.13 7.34998 18.89L9.66998 16.56C9.82998 16.4 9.95998 16.07 9.95998 15.84V14.04L15.38 8.62L20.05 10.63C20.68 10.9 21.19 11.69 21.19 12.37Z" fill="#FF5C64"/>
</svg>
