<svg width="20" height="24" viewBox="0 0 20 24" fill="none" xmlns="http://www.w3.org/2000/svg">
<g opacity="0.4">
<path d="M15.1775 1.34454H4.82254C1.34454 1.34454 1.34454 1.34454 1.34454 2.76602V3.71368H18.6555V2.76602C18.6555 1.34454 18.6555 1.34454 15.1775 1.34454Z" fill="#1A40BC"/>
<path d="M4.82254 21.0084H15.1775C15.5063 21.0084 15.8245 20.9628 16.126 20.8776C17.5858 20.4651 18.6555 19.1242 18.6555 17.5337V14.7697V11.216H1.34454V14.7697V17.5337C1.34454 19.1242 2.41418 20.4651 3.87399 20.8776C4.17552 20.9628 4.4937 21.0084 4.82254 21.0084Z" fill="#1A40BC"/>
</g>
<path fill-rule="evenodd" clip-rule="evenodd" d="M0.790514 14.7059H1.34387V17.4806C1.34387 19.0773 2.41359 20.4234 3.87352 20.8375V22.3165C3.87352 22.7543 3.51959 23.1092 3.083 23.1092H0.790514C0.353925 23.1092 0 22.7543 0 22.3165V15.4987C0 15.0608 0.353925 14.7059 0.790514 14.7059ZM16.1265 20.8375V22.3165C16.1265 22.7543 16.4804 23.1092 16.917 23.1092H19.2095C19.6461 23.1092 20 22.7543 20 22.3165V15.4987C20 15.0608 19.6461 14.7059 19.2095 14.7059H18.6561V17.4806C18.6561 19.0773 17.5864 20.4234 16.1265 20.8375Z" fill="#1A40BC"/>
<rect x="7.14288" y="12.605" width="1.68067" height="6.21849" rx="0.840336" fill="#1A40BC"/>
<rect x="9.15967" y="12.605" width="1.68067" height="6.21849" rx="0.840336" fill="#1A40BC"/>
<rect x="11.1765" y="12.605" width="1.68067" height="6.21849" rx="0.840336" fill="#1A40BC"/>
<rect x="17.563" y="5.37815" width="2.10084" height="4.03361" rx="1.05042" fill="#1A40BC"/>
<rect x="0.336121" y="5.37815" width="2.10084" height="4.03361" rx="1.05042" fill="#1A40BC"/>
<rect x="3.86554" y="4.45378" width="12.1849" height="5.88235" fill="#1A40BC"/>
<ellipse cx="4.36975" cy="13.4034" rx="1.34454" ry="1.30252" fill="#1A40BC"/>
<ellipse cx="15.6302" cy="13.4034" rx="1.34454" ry="1.30252" fill="#1A40BC"/>
<path fill-rule="evenodd" clip-rule="evenodd" d="M6.21848 1.34454C6.21848 0.60197 5.5977 0 4.83193 0C4.06616 0 3.44537 0.60197 3.44537 1.34454H6.21848Z" fill="#1A40BC"/>
<path fill-rule="evenodd" clip-rule="evenodd" d="M9.66387 1.34454C9.66387 0.60197 9.0619 0 8.31933 0C7.57676 0 6.97479 0.60197 6.97479 1.34454H9.66387Z" fill="#1A40BC"/>
<path fill-rule="evenodd" clip-rule="evenodd" d="M13.1092 1.34454C13.1092 0.60197 12.5073 0 11.7647 0C11.0221 0 10.4202 0.60197 10.4202 1.34454H13.1092Z" fill="#1A40BC"/>
<path fill-rule="evenodd" clip-rule="evenodd" d="M16.5546 1.34454C16.5546 0.60197 15.9526 0 15.2101 0C14.4675 0 13.8655 0.60197 13.8655 1.34454H16.5546Z" fill="#1A40BC"/>
</svg>
