<svg width="60" height="58" viewBox="0 0 60 58" fill="none" xmlns="http://www.w3.org/2000/svg">
<path d="M42 4.81836H35.5C27.5 4.81836 22.5 9.59109 22.5 17.2275V26.8922H38.125C39.15 26.8922 40 27.7036 40 28.682C40 29.6604 39.15 30.4718 38.125 30.4718H22.5V40.1365C22.5 47.7729 27.5 52.5456 35.5 52.5456H41.975C49.975 52.5456 54.975 47.7729 54.975 40.1365V17.2275C55 9.59109 50 4.81836 42 4.81836Z" fill="#FF5C64"/>
<path d="M11.4 26.8922L16.575 21.9524C16.95 21.5944 17.125 21.141 17.125 20.6876C17.125 20.2342 16.95 19.7569 16.575 19.4228C15.85 18.7308 14.65 18.7308 13.925 19.4228L5.54998 27.4172C4.82498 28.1092 4.82498 29.2547 5.54998 29.9467L13.925 37.941C14.65 38.6331 15.85 38.6331 16.575 37.941C17.3 37.249 17.3 36.1035 16.575 35.4115L11.4 30.4717H22.5V26.8922H11.4V26.8922Z" fill="#FF5C64"/>
</svg>
