<svg width="405" height="619" viewBox="0 0 405 619" fill="none" xmlns="http://www.w3.org/2000/svg">
<path d="M230 115L228 92.5H222.5L218 81.5L219 62.5L225.5 54L218 43.5L211.5 55H205L177 39.5L171 43L171.5 48L192 58.5L186 73.5L198 87.5L194 96.5V111.5L181.5 121.5L170 123.5V132.5L164 140L169 143L179.5 144.5L183.5 158L213.5 126.5L221.5 128L230 115Z" fill="#FFCC00"/>
<path d="M184 34L181.5 31.5L184.5 29L191.5 28.5V32.5L184 34Z" fill="#FFCC00"/>
<path d="M179.5 23.5L180 18.5L183 21V25L179.5 23.5Z" fill="#FFCC00"/>
<path d="M203 32L206.5 24L212.5 27L208 34.5H204.5L203 32Z" fill="#FFCC00"/>
<path d="M185 11L192 6.5L194 11.5L192 16.5L188 14.5L185 11Z" fill="#FFCC00"/>
<path d="M206.5 3L210 1L212 4.5L208.5 7.5L206.5 3Z" fill="#FFCC00"/>
<path d="M167 39.5L156.5 43L155.5 54.5L151.5 62.5L146 81.5L149 106L144 123.5L147 139.5L139.5 146.5L136.5 141.5L130.5 129L123 134.5V149L128 155.5L141 163L168 155.5L169 143L164 140H154V125L161 111.5L164 101.5L155.5 87.5L158.5 73.5L170 65L171.5 48.5L171 43L167 39.5Z" fill="#FFCC00"/>
<path d="M192 58.5L171.5 48L170 65L158.5 73.5L155.5 87.5L164 102L161 111.5L154 125V140H164L170 132.5V123.5L181.5 121.5L194 111.5V96.5L198 87.5L186 73.5L192 58.5Z" fill="#FFCC00"/>
<path d="M221 136L213.5 146L210 143L202.5 144.5L193.5 153.5L198 159L186.5 176L185.5 189.5L178.5 194.5L166.5 198.5L159.5 197.5L155.5 192V201.5L156.5 214.5L147 210L142 202.5L133.5 193V180L127.5 171.5L128 155.5L141 163L168 155.5L169 143L179.5 144.5L183.5 158L213.5 126.5L221.5 128L221 136Z" fill="#FFCC00"/>
<path d="M191 181L186.5 176L185.5 189.5L178.5 194.5L173.5 196.5L175 207.5L181 208L187 212L187.5 216L179 221.5L174.5 214L174 208.5L170 209L163 215.5L156 218V237L163 232.5L168.5 238.5L173 243L182 244L188.5 243L191 235.5L199.5 231L214 237L217.5 244L225 245.5L229 252L231 258.5L234.5 263L239 260.5L237.5 250L232 244L231 234.5L243.5 228L232 223L226.5 225L222.5 219.5L217.5 223L210 218L207.5 221L219 231H213L201 223L199.5 201L193.5 190.5L191 181Z" fill="#FFCC00"/>
<path d="M214 188.5L203.5 187V191.5L207 194L208 204.5L213.5 201L215 196L222 201.5V196L217.5 191L214 193V188.5Z" fill="#FFCC00"/>
<path d="M175 208L170 209L166.5 198.5L173.5 196L175 208Z" fill="#FFCC00"/>
<path d="M249 269V262L253 263L258 267.5L259.5 272.5L263 273.5L267.5 281.5L266.5 283L256.5 274L249 269Z" fill="#1A40BC"/>
<path d="M276 287L275.5 281.5L280.5 283.5L284 289.5L285.5 295.5L283 296.5L276 287Z" fill="#1A40BC"/>
<path d="M301 223L296.5 225.5V238L293 239.5V245L299 248L305.5 246.5L308 242V233L303 231.5V227L301 223Z" fill="#1A40BC"/>
<path d="M285.5 234.5L289 239.5L284.5 240H277.5L273.5 242L276 248L285 254.5L294 256L301.5 260L301 262.5L295 260.5L291 259L282.5 260L283.5 266L288.5 263.5L293 267L297.5 266L301.5 267.5L298.5 270L299 280.5L296.5 288L291 287L285.5 281.5V276.5H288.5L292.5 274.5L293 271H287.5L285.5 274.5L281.5 276L275.5 273.5L269.5 268L267 269.5H264V260L259.5 256L258 252L244.5 245L245 240L236 232L243 228L232 223L226.5 225L224.5 222L228.5 216H243L256 227L255 232V238L261.5 239.5L264.5 235L260 228.5L264 223L269.5 229.5H277.5L285.5 234.5Z" fill="#1A40BC"/>
<path d="M269.5 302.5L257 318L260.5 302.5V286L269.5 288L281.5 299.5L285.5 301L292 306L297.5 318L295 321.5L283.5 313.5L279 317L274.5 313.5L277 307.5L273.5 302.5H269.5Z" fill="#1A40BC"/>
<path d="M206 247L203.5 251.5V256L206 260.5L213.5 263.5L216.5 253.5L212.5 248L206 247Z" fill="#1A40BC"/>
<path d="M145.5 256L142.5 253.5L145.5 247L151 248L160 249.5L170 248L172 252.5L180 251.5L185.5 256L193 265L190.5 275L194.5 285L188 295.5L184 302.5L173.5 301L170 291L164 283.5L161.5 271.5L158 265L151 260.5L149 251.5L145.5 256Z" fill="#1A40BC"/>
<path d="M132.5 301L126.5 296.5L124 304.5L122 310.5L126.5 318.5L129.5 325.5L141 318.5L145 307.5L138.5 302.5L132.5 301Z" fill="#1A40BC"/>
<path d="M124 335H117.5L124 327L126.5 330L124 335Z" fill="#1A40BC"/>
<path d="M112 337.5L106 333.5L101.5 345.5L98 350V356.5L101.5 365L99 370L95 368L88 378.5L80.5 384.5L73 394.5L49.5 422L43.5 421L14 449.5L13 459L18 455.5L27.5 453.5L28.5 447.5L33.5 446.5L39.5 442.5L48.5 436L53 427H62L80.5 406.5L78 395.5L96.5 392.5L99 386.5L103 378.5H110.5L116 373L121 375.5L131 373L123 368H117.5L110.5 358.5V350H116L114.5 343.5L112 337.5Z" fill="#1A40BC"/>
<path d="M1 477L6 467.5L8.5 471.5V479L4.5 482.5L1 477Z" fill="#1A40BC"/>
<path d="M13 468.5L8.5 464L11.5 462.5L15 466L13 468.5Z" fill="#1A40BC"/>
<path d="M134 339L131.5 336L137.5 330.5L140.5 332.5L134 339Z" fill="#1A40BC"/>
<path d="M142 368L138 367L139 361H143.5L145 364L142 368Z" fill="#1A40BC"/>
<path d="M209.5 302L208.5 299L211 293V285.5L217.5 284.5L215 302L212.5 308L209.5 305V302Z" fill="#1A40BC"/>
<path d="M221.5 293L220.5 283.5L224 285.5L225.5 289.5L221.5 293Z" fill="#1A40BC"/>
<path d="M228 295V289.5H237L240 297L237 303L228 295Z" fill="#1A40BC"/>
<path d="M317 288.5L303.5 287L305 298L310.5 306L318 308.5L328 316.5L332.5 320L329.5 325L324.5 320L321 321L325.5 331V335L318 338L315.5 333L318 329L313 321L306.5 322.5L310.5 333L303.5 328L309 340.5V352.5L314 356L316.5 350.5L325.5 363L321 374L324.5 377.5V385.5L337.5 394L332.5 380.5L334 376L339.5 388L345 396L347.5 394L342.5 382.5L346 377.5L335.5 360L334 340.5H338.5L342.5 346H356.5L364.5 352.5L368.5 351L359 336L353.5 329L352 320V308.5L350 299L346 296.5L342.5 288.5L335.5 285.5L317 288.5Z" fill="#1A40BC"/>
<path d="M303.5 367.5L306.5 363L314 360L316.5 363L311.5 366.5L303.5 367.5Z" fill="#1A40BC"/>
<path d="M364.5 364.5L359 360L362.5 356L369.5 361.5L364.5 364.5Z" fill="#1A40BC"/>
<path d="M306 310.5L303.5 314.5L311.5 315L310.5 310.5H306Z" fill="#1A40BC"/>
<path d="M244.5 405.5L240 417.5L229.5 412L226.5 403.5L229.5 393.5H238.5L244.5 389.5L246 379.5L244.5 371L250 367V355.5L255.5 354.5L259.5 350.5L274.5 355.5L271.5 371L267 377.5L259.5 373.5L257 379.5L259.5 382L255 396.5L244.5 405.5Z" fill="#1A40BC"/>
<path d="M215.5 318L208.5 311.5L204 321.5L214.5 323.5L213 350.5L207.5 360L209.5 362.5V369L206.5 373.5L211 376L219.5 367L233 365.5L231 371L233 375L240 373.5V361.5L243 360L244.5 353L257 346L260.5 338L259.5 326.5L249 330.5L245.5 324.5L235.5 330L229.5 323.5L222.5 319L215.5 318Z" fill="#1A40BC"/>
<path d="M246.5 423L240 417.5L244.5 405.5L255 396.5L259.5 382L257 379.5L259.5 373.5L267 377.5L266.5 383L258.5 399.5V411.5L267.5 420.5L257.5 432.5L249.5 431L246.5 423Z" fill="#1A40BC"/>
<path d="M276.5 423L272.5 424L271.5 429.5L278.5 431L283.5 429.5L282.5 425L277.5 419.5L276.5 423Z" fill="#1A40BC"/>
<path d="M269.5 415.5H265.5L264 409.5L267.5 394L273 387L279.5 373.5L286 361.5L288.5 346.5H294V377.5L277.5 390L278.5 397.5L273 411L269.5 415.5Z" fill="#1A40BC"/>
<path d="M285 345L282.5 338L279.5 345L277.5 350L285 345Z" fill="#1A40BC"/>
<path d="M286 406.5L285 401L287 396.5L294 393L296.5 389L300 383H305.5L311 387L318.5 385L316.5 397.5L318.5 403L313 404.5L305.5 409.5H290L283.5 411L286 406.5Z" fill="#1A40BC"/>
<path d="M391.5 473.5L350.5 474V473L349 461.5V445.5L346 432.5H357.5L357 423.5L354 417L351.5 411.5V401.5L354 398.5L360 403.5L361 406.5L371.5 410.5L376.5 414V420.5H380.5L384.5 418V428L389 431L391.5 438L387.5 443.5L380.5 447.5L383.5 450.5L392 449.5L394 457.5L389.5 463.5L391.5 464.5L397 461V473.5L393 476L391.5 473.5Z" fill="#FF1A25"/>
<path d="M371.5 407L372.5 401H375L373.5 398L370.5 395.5V393H374L376 391L376.5 385.5L380.5 391L381.5 397L383.5 401.5L380 403.5L376 404L375 407L374 409.5L371.5 407Z" fill="#FF1A25"/>
<path d="M354.5 396.5V393.5L357 394L360 393L364 393.5L363 397.5L360 399L358 398L354.5 396.5Z" fill="#FF1A25"/>
<path d="M357.5 392L354.5 391L353 388.5L354 383L356 375.5L358.5 371L362 371.5L361.5 379L363 385L363.5 391L357.5 392Z" fill="#FF1A25"/>
<path d="M278 447L277 450V472.5L279.5 474.5L283.5 472.5L289.5 466.5L288.5 459L286.5 453.5L283 448.5L278 447Z" fill="#FF1A25"/>
<path d="M286.5 473L281 476L282.5 477.5L281 483L285.5 487L293 488L298 482.5V479L302 474.5L307 473.5L309 468L312.5 466.5L318.5 471.5L325 477.5L326.5 482.5L332.5 489.5V499.5H340.5V494.5L341.5 489.5H349L350.5 473L349 461.5V445.5L346 432L345 429.5H343V437L341 439.5H338L334 434L329.5 432L325.5 433.5L326 440.5L324.5 447L326 453.5L319.5 452.5L314 448.5L307 452.5L305.5 457.5L304 465.5L293 466L286.5 473Z" fill="#FF1A25"/>
<path d="M325 423L320 422.5L319.5 426.5L321.5 429L327 430L327.5 426.5L325 423Z" fill="#FF1A25"/>
<path d="M277 472.5V450L273 445.5H269.5L265 453.5H254.5L251.5 462V468L237.5 469L222.5 474L217.5 482L216.5 492.5L214.5 503.5L208 507V516L212.5 522H219L222.5 510.5L237.5 484.5L244 486V499.5L246.5 505.5L252.5 501.5L254.5 490L258 487.5V494.5L259.5 497.5L265 494L266 499.5L270.5 503.5L273 499.5L270.5 494.5L273 490V484.5L281 483L282.5 477.5L277 472.5Z" fill="#FF1A25"/>
<path d="M209.5 529.5L201.5 532.5L206.5 535L208 540L213 542.5L220 540L221.5 535L226.5 533.5L225 531L220 530L216.5 527.5H211L209.5 529.5Z" fill="#FF1A25"/>
<path d="M107 602H101.5L104 607.5L101.5 615.5L107 618L109 610L107 602Z" fill="#FF1A25"/>
<path d="M126 598.5H115L121.5 590L128.5 588.5L136 584.5L141.5 587L144.5 594L141.5 598.5H134.5L136 595.5L133 593L126 598.5Z" fill="#FF1A25"/>
<path d="M175 564L164.5 561.5L166 558L170.5 555L176.5 554.5L180 557.5L189.5 555L188 562.5L180.5 565.5L178.5 561.5L175 564Z" fill="#FF1A25"/>
<path d="M158 575V582H159.5L163 578.5L167 581.5L169.5 578.5L166 573.5L158 575Z" fill="#FF1A25"/>
<path d="M157 548.5L147.5 547.5L150.5 543.5L154 540.5H159L157 548.5Z" fill="#FF1A25"/>
<path d="M133 564L125 565V561.5L128.5 560.5L130.5 558L134.5 557.5V560.5L133 564Z" fill="#FF1A25"/>
<path d="M203 556.5L192.5 561.5L191.5 556.5H195.5L200 554.5L203 556.5Z" fill="#FF1A25"/>
<path d="M147.5 570L146 565L143 565.5L144.5 569H139.5L138.5 574H143L147.5 570Z" fill="#FF1A25"/>
<path d="M197 535.5V530L191.5 529.5V533.5L197 535.5Z" fill="#FF1A25"/>
<path d="M215 544.5L209 543.5L208.5 546.5L213 548.5L215 544.5Z" fill="#FF1A25"/>
<path d="M206.5 554.5L201.5 553V550L208 552L206.5 554.5Z" fill="#FF1A25"/>
<path d="M171.5 553L168.5 554.5H165.5L164.5 551.5L168.5 548.5L173.5 548V550.5L171.5 551V553Z" fill="#FF1A25"/>
<path d="M316.5 529.5H297.5L293.5 523.5L294 518.5L297.5 512L304 503L302 499L297 491L293 488L298 482.5V479L302 474.5L305.5 474V476L304 478.5L300.5 482L304.5 484L309 481.5L310 477.5L307 475.5V473.5L309 468L312.5 466.5L325 477.5L326.5 482.5L332.5 489.5L324.5 491.5L321 488H315.5L315 500.5L310.5 505.5H316.5V514.5L321 516.5L324.5 514.5L321 508.5L323.5 507L330 515.5L331.5 525L335 527.5L333.5 529.5L326.5 528.5L324.5 525L316.5 529.5Z" fill="#FF1A25"/>
<path d="M298.5 499.5L296 501L295.209 503.5L297 505L299 503.5L300 501.5L298.5 499.5Z" fill="#FF1A25"/>
<path d="M391.5 473.5L350.5 474L349 489V497.5L347 498.5L346.5 500.5L348 502L346.5 523.5L345.5 538.5L347.5 540.5L350.5 540L352.5 536.5L355 537L356.5 539.5L358.5 540.5L359 546L360.5 548.5L358 551.5V558L356.5 564.5L354 571L350.5 572V575.5L356 575L358 573L360.5 566L363 564L367.5 558V547L362.5 535.5L358.5 532L353.5 530.5L354 522.5L357.5 519L358.5 515L361 513L365 510.5L366.5 511.5V514.5L365 516V519.5H370.5V507.5L367.5 506.5L365 507L366 503L371.5 500.5L372 505L374.5 507L378.5 519L381 520.5L383 527.5L382.5 535.5L385 540L385.758 545H388.5L390 538.5V531.5L389 523.5L387 521V517.5L389 516.5L391.5 520L392.5 524H395L394.5 520.5L392.5 517.5V515H397.5L401 508.5L404 503L403 499L404 495.5L403 491L401 484L393 478.5V476L391.5 473.5Z" fill="#FF1A25"/>
<path d="M357.5 583.5H352.5L352 581.5L353.5 579.5H356.5L358 576.5H359.5L359 582L357.5 583.5Z" fill="#FF1A25"/>
<path d="M341.5 489.5H349V497.5L347 498.5L346.5 500.5L348 502L345.5 538.5L347.5 540.5L350.5 540L352.5 536.5L355 537L356.5 539.5L358.5 540.5L359 546L360.5 548.5L358 551.5V558L356.5 564.5L354 571L350.5 572L345.5 567.5V563.5L350 558L349 553.5L345.5 552.5L343.5 557L342 562.5H332L320.5 557.5L311 553.5L303 548L297.5 541.5V529.5H316.5L324.5 525L326.5 528.5L333.5 529.5L335 527.5L331.5 525L330 515.5L323.5 507L321 508.5L324.5 514.5L321 516.5L316.5 514.5V505.5H310.5L315 500.5L315.5 488H321L324.5 491.5L332.5 489.5V499.5H340.5V494.5L341.5 489.5Z" fill="#FF1A25"/>
<path d="M221.5 128L230 115L228 92.5H222.5L218 81.5L219 62.5L225.5 54L218 43.5L211.5 55H205L177 39.5L171 43M221.5 128L213.5 126.5L183.5 158L179.5 144.5L169 143M221.5 128L221 136L213.5 146L210 143L202.5 144.5L193.5 153.5L198 159L186.5 176M169 143L164 140M169 143L168 155.5L141 163L128 155.5M164 140L170 132.5V123.5L181.5 121.5L194 111.5V96.5L198 87.5L186 73.5L192 58.5L171.5 48M164 140H154V125L161 111.5M171.5 48L171 43M171.5 48L170 65M171 43L167 39.5L156.5 43L155.5 54.5L151.5 62.5L146 81.5L149 106L144 123.5L147 139.5L139.5 146.5L136.5 141.5L130.5 129L123 134.5V149L128 155.5M171 43L171.5 48.5L170 65M170 65L158.5 73.5L155.5 87.5M155.5 87.5L164 101.5L161 111.5M155.5 87.5L164 102L161 111.5M128 155.5L127.5 171.5L133.5 180V193L142 202.5L147 210L156.5 214.5L155.5 201.5V192L159.5 197.5L166.5 198.5M166.5 198.5L178.5 194.5M166.5 198.5L173.5 196L175 208L170 209M166.5 198.5L170 209M178.5 194.5L185.5 189.5L186.5 176M178.5 194.5L173.5 196.5L175 207.5L181 208L187 212L187.5 216L179 221.5L174.5 214L174 208.5L170 209M186.5 176L191 181L193.5 190.5L199.5 201L201 223L213 231H219L207.5 221L210 218L217.5 223L222.5 219.5L226.5 225M226.5 225L232 223M226.5 225L224.5 222L228.5 216H243L256 227L255 232V238L261.5 239.5L264.5 235L260 228.5L264 223L269.5 229.5H277.5L285.5 234.5L289 239.5L284.5 240H277.5L273.5 242L276 248L285 254.5L294 256L301.5 260L301 262.5L295 260.5L291 259L282.5 260L283.5 266L288.5 263.5L293 267L297.5 266L301.5 267.5L298.5 270L299 280.5L296.5 288L291 287L285.5 281.5V276.5H288.5L292.5 274.5L293 271H287.5L285.5 274.5L281.5 276L275.5 273.5L269.5 268L267 269.5H264V260L259.5 256L258 252L244.5 245L245 240L236 232L243 228L232 223M232 223L243.5 228L231 234.5L232 244L237.5 250L239 260.5L234.5 263L231 258.5L229 252L225 245.5L217.5 244L214 237L199.5 231L191 235.5L188.5 243L182 244L173 243L168.5 238.5L163 232.5L156 237V218L163 215.5L170 209M240 417.5L244.5 405.5L255 396.5L259.5 382L257 379.5L259.5 373.5L267 377.5M240 417.5L229.5 412L226.5 403.5L229.5 393.5H238.5L244.5 389.5L246 379.5L244.5 371L250 367V355.5L255.5 354.5L259.5 350.5L274.5 355.5L271.5 371L267 377.5M240 417.5L246.5 423L249.5 431L257.5 432.5L267.5 420.5L258.5 411.5V399.5L266.5 383L267 377.5M350.5 474L391.5 473.5L393 476M350.5 474V473M350.5 474L349 489V497.5M393 476L397 473.5V461L391.5 464.5L389.5 463.5L394 457.5L392 449.5L383.5 450.5L380.5 447.5L387.5 443.5L391.5 438L389 431L384.5 428V418L380.5 420.5H376.5V414L371.5 410.5L361 406.5L360 403.5L354 398.5L351.5 401.5V411.5L354 417L357 423.5L357.5 432.5H346L349 445.5M393 476V478.5L401 484L403 491L404 495.5L403 499L404 503L401 508.5L397.5 515H392.5V517.5L394.5 520.5L395 524H392.5L391.5 520L389 516.5L387 517.5V521L389 523.5L390 531.5V538.5L388.5 545H385.758L385 540L382.5 535.5L383 527.5L381 520.5L378.5 519L374.5 507L372 505L371.5 500.5L366 503L365 507L367.5 506.5L370.5 507.5V519.5H365V516L366.5 514.5V511.5L365 510.5L361 513L358.5 515L357.5 519L354 522.5L353.5 530.5L358.5 532L362.5 535.5L367.5 547V558L363 564L360.5 566L358 573L356 575L350.5 575.5V572M349 445.5V461.5L350.5 473M349 445.5L346 432L345 429.5H343V437L341 439.5H338L334 434L329.5 432L325.5 433.5L326 440.5L324.5 447L326 453.5L319.5 452.5L314 448.5L307 452.5L305.5 457.5L304 465.5L293 466L286.5 473L281 476L282.5 477.5M350.5 473L349 489.5M277 450L278 447L283 448.5L286.5 453.5L288.5 459L289.5 466.5L283.5 472.5L279.5 474.5L277 472.5M277 450V472.5M277 450L273 445.5H269.5L265 453.5H254.5L251.5 462V468L237.5 469L222.5 474L217.5 482L216.5 492.5L214.5 503.5L208 507V516L212.5 522H219L222.5 510.5L237.5 484.5L244 486V499.5L246.5 505.5L252.5 501.5L254.5 490L258 487.5V494.5L259.5 497.5L265 494L266 499.5L270.5 503.5L273 499.5L270.5 494.5L273 490V484.5L281 483M277 472.5L282.5 477.5M349 489.5H341.5L340.5 494.5V499.5H332.5V489.5M349 489.5V497.5M332.5 489.5L326.5 482.5L325 477.5M332.5 489.5L324.5 491.5L321 488H315.5L315 500.5L310.5 505.5H316.5V514.5L321 516.5L324.5 514.5L321 508.5L323.5 507L330 515.5L331.5 525L335 527.5L333.5 529.5L326.5 528.5L324.5 525L316.5 529.5H297.5M325 477.5L318.5 471.5L312.5 466.5M325 477.5L312.5 466.5M312.5 466.5L309 468L307 473.5M307 473.5L302 474.5M307 473.5V475.5L310 477.5L309 481.5L304.5 484L300.5 482L304 478.5L305.5 476V474L302 474.5M302 474.5L298 479V482.5L293 488M293 488L285.5 487L281 483M293 488L297 491L302 499L304 503L297.5 512L294 518.5L293.5 523.5L297.5 529.5M281 483L282.5 477.5M297.5 529.5V541.5L303 548L311 553.5L320.5 557.5L332 562.5H342L343.5 557L345.5 552.5L349 553.5L350 558L345.5 563.5V567.5L350.5 572M350.5 572L354 571L356.5 564.5L358 558V551.5L360.5 548.5L359 546L358.5 540.5L356.5 539.5L355 537L352.5 536.5L350.5 540L347.5 540.5L345.5 538.5M345.5 538.5L346.5 523.5L348 502M345.5 538.5L348 502M348 502L346.5 500.5L347 498.5L349 497.5M181.5 31.5L184 34L191.5 32.5V28.5L184.5 29L181.5 31.5ZM180 18.5L179.5 23.5L183 25V21L180 18.5ZM206.5 24L203 32L204.5 34.5H208L212.5 27L206.5 24ZM192 6.5L185 11L188 14.5L192 16.5L194 11.5L192 6.5ZM210 1L206.5 3L208.5 7.5L212 4.5L210 1ZM203.5 187L214 188.5V193L217.5 191L222 196V201.5L215 196L213.5 201L208 204.5L207 194L203.5 191.5V187ZM249 262V269L256.5 274L266.5 283L267.5 281.5L263 273.5L259.5 272.5L258 267.5L253 263L249 262ZM275.5 281.5L276 287L283 296.5L285.5 295.5L284 289.5L280.5 283.5L275.5 281.5ZM296.5 225.5L301 223L303 227V231.5L308 233V242L305.5 246.5L299 248L293 245V239.5L296.5 238V225.5ZM257 318L269.5 302.5H273.5L277 307.5L274.5 313.5L279 317L283.5 313.5L295 321.5L297.5 318L292 306L285.5 301L281.5 299.5L269.5 288L260.5 286V302.5L257 318ZM203.5 251.5L206 247L212.5 248L216.5 253.5L213.5 263.5L206 260.5L203.5 256V251.5ZM142.5 253.5L145.5 256L149 251.5L151 260.5L158 265L161.5 271.5L164 283.5L170 291L173.5 301L184 302.5L188 295.5L194.5 285L190.5 275L193 265L185.5 256L180 251.5L172 252.5L170 248L160 249.5L151 248L145.5 247L142.5 253.5ZM126.5 296.5L132.5 301L138.5 302.5L145 307.5L141 318.5L129.5 325.5L126.5 318.5L122 310.5L124 304.5L126.5 296.5ZM117.5 335H124L126.5 330L124 327L117.5 335ZM106 333.5L112 337.5L114.5 343.5L116 350H110.5V358.5L117.5 368H123L131 373L121 375.5L116 373L110.5 378.5H103L99 386.5L96.5 392.5L78 395.5L80.5 406.5L62 427H53L48.5 436L39.5 442.5L33.5 446.5L28.5 447.5L27.5 453.5L18 455.5L13 459L14 449.5L43.5 421L49.5 422L73 394.5L80.5 384.5L88 378.5L95 368L99 370L101.5 365L98 356.5V350L101.5 345.5L106 333.5ZM6 467.5L1 477L4.5 482.5L8.5 479V471.5L6 467.5ZM8.5 464L13 468.5L15 466L11.5 462.5L8.5 464ZM131.5 336L134 339L140.5 332.5L137.5 330.5L131.5 336ZM138 367L142 368L145 364L143.5 361H139L138 367ZM208.5 299L209.5 302V305L212.5 308L215 302L217.5 284.5L211 285.5V293L208.5 299ZM220.5 283.5L221.5 293L225.5 289.5L224 285.5L220.5 283.5ZM228 289.5V295L237 303L240 297L237 289.5H228ZM303.5 287L317 288.5L335.5 285.5L342.5 288.5L346 296.5L350 299L352 308.5V320L353.5 329L359 336L368.5 351L364.5 352.5L356.5 346H342.5L338.5 340.5H334L335.5 360L346 377.5L342.5 382.5L347.5 394L345 396L339.5 388L334 376L332.5 380.5L337.5 394L324.5 385.5V377.5L321 374L325.5 363L316.5 350.5L314 356L309 352.5V340.5L303.5 328L310.5 333L306.5 322.5L313 321L318 329L315.5 333L318 338L325.5 335V331L321 321L324.5 320L329.5 325L332.5 320L328 316.5L318 308.5L310.5 306L305 298L303.5 287ZM306.5 363L303.5 367.5L311.5 366.5L316.5 363L314 360L306.5 363ZM359 360L364.5 364.5L369.5 361.5L362.5 356L359 360ZM303.5 314.5L306 310.5H310.5L311.5 315L303.5 314.5ZM208.5 311.5L215.5 318L222.5 319L229.5 323.5L235.5 330L245.5 324.5L249 330.5L259.5 326.5L260.5 338L257 346L244.5 353L243 360L240 361.5V373.5L233 375L231 371L233 365.5L219.5 367L211 376L206.5 373.5L209.5 369V362.5L207.5 360L213 350.5L214.5 323.5L204 321.5L208.5 311.5ZM272.5 424L276.5 423L277.5 419.5L282.5 425L283.5 429.5L278.5 431L271.5 429.5L272.5 424ZM265.5 415.5H269.5L273 411L278.5 397.5L277.5 390L294 377.5V346.5H288.5L286 361.5L279.5 373.5L273 387L267.5 394L264 409.5L265.5 415.5ZM282.5 338L285 345L277.5 350L279.5 345L282.5 338ZM285 401L286 406.5L283.5 411L290 409.5H305.5L313 404.5L318.5 403L316.5 397.5L318.5 385L311 387L305.5 383H300L296.5 389L294 393L287 396.5L285 401ZM372.5 401L371.5 407L374 409.5L375 407L376 404L380 403.5L383.5 401.5L381.5 397L380.5 391L376.5 385.5L376 391L374 393H370.5V395.5L373.5 398L375 401H372.5ZM354.5 393.5V396.5L358 398L360 399L363 397.5L364 393.5L360 393L357 394L354.5 393.5ZM354.5 391L357.5 392L363.5 391L363 385L361.5 379L362 371.5L358.5 371L356 375.5L354 383L353 388.5L354.5 391ZM320 422.5L325 423L327.5 426.5L327 430L321.5 429L319.5 426.5L320 422.5ZM201.5 532.5L209.5 529.5L211 527.5H216.5L220 530L225 531L226.5 533.5L221.5 535L220 540L213 542.5L208 540L206.5 535L201.5 532.5ZM101.5 602H107L109 610L107 618L101.5 615.5L104 607.5L101.5 602ZM115 598.5H126L133 593L136 595.5L134.5 598.5H141.5L144.5 594L141.5 587L136 584.5L128.5 588.5L121.5 590L115 598.5ZM164.5 561.5L175 564L178.5 561.5L180.5 565.5L188 562.5L189.5 555L180 557.5L176.5 554.5L170.5 555L166 558L164.5 561.5ZM158 582V575L166 573.5L169.5 578.5L167 581.5L163 578.5L159.5 582H158ZM147.5 547.5L157 548.5L159 540.5H154L150.5 543.5L147.5 547.5ZM125 565L133 564L134.5 560.5V557.5L130.5 558L128.5 560.5L125 561.5V565ZM192.5 561.5L203 556.5L200 554.5L195.5 556.5H191.5L192.5 561.5ZM146 565L147.5 570L143 574H138.5L139.5 569H144.5L143 565.5L146 565ZM197 530V535.5L191.5 533.5V529.5L197 530ZM209 543.5L215 544.5L213 548.5L208.5 546.5L209 543.5ZM201.5 553L206.5 554.5L208 552L201.5 550V553ZM168.5 554.5L171.5 553V551L173.5 550.5V548L168.5 548.5L164.5 551.5L165.5 554.5H168.5ZM296 501L298.5 499.5L300 501.5L299 503.5L297 505L295.209 503.5L296 501ZM352.5 583.5H357.5L359 582L359.5 576.5H358L356.5 579.5H353.5L352 581.5L352.5 583.5Z" stroke="black"/>
</svg>
