<svg width="28" height="30" viewBox="0 0 28 30" fill="none" xmlns="http://www.w3.org/2000/svg">
<g filter="url(#filter0_d_2434_7231)">
<path d="M23.6297 14.6598L23.2197 16.5198C22.5097 19.7198 19.9997 21.9998 16.3797 21.9998H11.6197C7.99974 21.9998 5.48974 19.7198 4.77974 16.5198L4.36974 14.6598C4.16974 13.7498 4.70973 12.7198 5.57973 12.3698L6.99974 11.7998L12.5098 9.58981C12.9898 9.39981 13.4997 9.2998 13.9997 9.2998C14.4997 9.2998 15.0097 9.39981 15.4897 9.58981L20.9997 11.7998L22.4198 12.3698C23.2898 12.7198 23.8298 13.7498 23.6297 14.6598Z" fill="#FF5C64"/>
<path opacity="0.4" d="M21 8V11.8L15.49 9.59C14.53 9.21 13.47 9.21 12.51 9.59L7 11.8V8C7 6.35 8.35 5 10 5H18C19.65 5 21 6.35 21 8Z" fill="#FF5C64"/>
<path d="M16.5 5H11.5V3C11.5 2.45 11.95 2 12.5 2H15.5C16.05 2 16.5 2.45 16.5 3V5Z" fill="#FF5C64"/>
</g>
<defs>
<filter id="filter0_d_2434_7231" x="-2" y="0" width="32" height="32" filterUnits="userSpaceOnUse" color-interpolation-filters="sRGB">
<feFlood flood-opacity="0" result="BackgroundImageFix"/>
<feColorMatrix in="SourceAlpha" type="matrix" values="0 0 0 0 0 0 0 0 0 0 0 0 0 0 0 0 0 0 127 0" result="hardAlpha"/>
<feOffset dy="4"/>
<feGaussianBlur stdDeviation="2"/>
<feComposite in2="hardAlpha" operator="out"/>
<feColorMatrix type="matrix" values="0 0 0 0 0 0 0 0 0 0 0 0 0 0 0 0 0 0 0.25 0"/>
<feBlend mode="normal" in2="BackgroundImageFix" result="effect1_dropShadow_2434_7231"/>
<feBlend mode="normal" in="SourceGraphic" in2="effect1_dropShadow_2434_7231" result="shape"/>
</filter>
</defs>
</svg>
